# xmcd
#
# Track frame offsets:
#	150
#	30534
#	50659
#	58944
#	75763
#	95156
#	112004
#	136261
#	155667
#	171727
#	190477
#	208058
#	236802
#	252731
#	272866
#	293252
#	314025
#	328357
#
# Disc length: 4723 seconds
#
# Revision: 1
# Processed by: cddbd v1.5.2PL0 Copyright (c) Steve Scherf et al.
# Submitted via: audiograbber 1.83.01
#
DISCID=22127112
DTITLE=Shampala - Lost In Nightmare
DYEAR=2009
DGENRE=Blues
TTITLE0=The Story
TTITLE1=No Way Out
TTITLE2=Can't Wake Up
TTITLE3=Hunting For Love
TTITLE4=Silent Night
TTITLE5=Lost In Nightmare
TTITLE6=Journey To The End Of Days
TTITLE7=Pain
TTITLE8=Daddy's Girl
TTITLE9=Why
TTITLE10=Cold As Crystal Ice
TTITLE11=Your Freedom Will Come
TTITLE12=Shadows Of Your Soul
TTITLE13=Your Spirit
TTITLE14=3 AM
TTITLE15=Mystir
TTITLE16=Heaven's Angel
TTITLE17=Paranoia
EXTD=
EXTT0=
EXTT1=
EXTT2=
EXTT3=
EXTT4=
EXTT5=
EXTT6=
EXTT7=
EXTT8=
EXTT9=
EXTT10=
EXTT11=
EXTT12=
EXTT13=
EXTT14=
EXTT15=
EXTT16=
EXTT17=
PLAYORDER=
